<mxfile host="app.diagrams.net" modified="2023-08-06T10:16:36.179Z" agent="Mozilla/5.0 (Macintosh; Intel Mac OS X 10_15_7) AppleWebKit/537.36 (KHTML, like Gecko) Chrome/115.0.0.0 Safari/537.36" version="21.6.6" etag="k5lDXHjv0dl4T1gs-1jR" type="github">
  <diagram name="페이지-1" id="YH8PBF5Ih1R7LBh8rhHF">
    <mxGraphModel>
      <root>
        <mxCell id="0" />
        <mxCell id="1" parent="0" />
      </root>
    </mxGraphModel>
  </diagram>
</mxfile>
